<?xml version="1.0" encoding="UTF-8" standalone="no"?>
<!-- Created with Inkscape (http://www.inkscape.org/) -->

<svg
   xmlns:dc="http://purl.org/dc/elements/1.1/"
   xmlns:cc="http://creativecommons.org/ns#"
   xmlns:rdf="http://www.w3.org/1999/02/22-rdf-syntax-ns#"
   xmlns:svg="http://www.w3.org/2000/svg"
   xmlns="http://www.w3.org/2000/svg"
   xmlns:sodipodi="http://sodipodi.sourceforge.net/DTD/sodipodi-0.dtd"
   xmlns:inkscape="http://www.inkscape.org/namespaces/inkscape"
   width="800.34949"
   height="179.11484"
   id="svg2"
   version="1.1"
   inkscape:version="0.48.3.1 r9886"
   sodipodi:docname="header.svg">
  <defs
     id="defs4" />
  <sodipodi:namedview
     id="base"
     pagecolor="#ffffff"
     bordercolor="#666666"
     borderopacity="1.0"
     inkscape:pageopacity="0.0"
     inkscape:pageshadow="2"
     inkscape:zoom="1.4142136"
     inkscape:cx="451.53632"
     inkscape:cy="68.12137"
     inkscape:document-units="px"
     inkscape:current-layer="text4099"
     showgrid="false"
     inkscape:window-width="1920"
     inkscape:window-height="1055"
     inkscape:window-x="0"
     inkscape:window-y="24"
     inkscape:window-maximized="1"
     fit-margin-top="0"
     fit-margin-left="0"
     fit-margin-right="0"
     fit-margin-bottom="0"
     showguides="true"
     inkscape:guide-bbox="true">
    <sodipodi:guide
       orientation="0,1"
       position="43.133514,190.91883"
       id="guide3016" />
    <sodipodi:guide
       orientation="1,0"
       position="801.15198,126.57211"
       id="guide3018" />
  </sodipodi:namedview>
  <metadata
     id="metadata7">
    <rdf:RDF>
      <cc:Work
         rdf:about="">
        <dc:format>image/svg+xml</dc:format>
        <dc:type
           rdf:resource="http://purl.org/dc/dcmitype/StillImage" />
        <dc:title />
      </cc:Work>
    </rdf:RDF>
  </metadata>
  <g
     inkscape:label="Layer 1"
     inkscape:groupmode="layer"
     id="layer1"
     transform="translate(-76.152442,-1.8930946)">
    <g
       style="font-size:144px;font-style:normal;font-variant:normal;font-weight:normal;font-stretch:normal;line-height:125%;letter-spacing:0px;word-spacing:0px;fill:#daa520;fill-opacity:1;stroke:none;font-family:WebOMints GD;-inkscape-font-specification:WebOMints GD"
       id="text4099">
      <path
         d="m 178.10438,34.883027 c -7.82811,-2.05022 -13.41965,-10.81027 -23.48436,-21.061369 1.30469,-0.372768 2.42299,-0.559152 3.35491,-0.559152 9.50556,0 12.30134,8.387284 20.12945,21.620521 m 12.11495,2.982141 c 3.91406,-1.491069 7.08258,-3.914064 9.31919,-7.082584 4.65959,0 9.50558,-2.050227 15.09708,-7.082585 l 0,0.372768 c 0,9.878331 -6.70983,16.215391 -16.58815,16.215391 -2.42299,0 -5.21875,-0.745537 -7.82812,-2.42299 m 8.0145,-11.928563 c -3.72768,-0.559151 -5.96428,-3.168527 -5.96428,-6.150666 0,-4.100439 2.23662,-6.896201 6.70981,-8.200887 0.74554,1.863836 1.11831,3.914061 1.11831,5.964282 0,2.982138 -0.55915,5.7779 -1.86384,8.387271 m 14.53794,-9.132806 c -4.65959,4.65959 -8.20089,7.455353 -10.81026,8.573655 0.74553,-2.795755 1.1183,-5.405133 1.1183,-8.014504 0,-2.05022 -0.18639,-4.28683 -0.74554,-6.337049 4.47321,0 8.20089,2.050226 10.4375,5.777898 m 1.86383,-1.863838 c -2.60937,-4.10044 -6.8962,-6.5234334 -12.11494,-6.5234334 l -1.11831,0 c -2.79575,-4.4732073 -6.52343,-6.523433 -11.36941,-6.523433 -7.26895,0 -11.74218,3.914065 -11.74218,9.5055734 0,3.354905 2.42299,6.150666 5.03237,6.150666 0.55915,0 1.1183,-0.186384 1.67745,-0.372768 -1.67745,-0.745535 -2.23661,-2.050224 -2.23661,-4.100443 0,-4.6595915 2.60939,-7.2689686 7.26897,-7.2689686 2.98214,0 5.59152,1.3046879 7.45535,3.3549084 -5.5915,1.8638352 -8.76003,5.7779032 -8.76003,10.6238762 0,5.032358 2.2366,8.573657 6.52343,10.25111 -2.60937,2.60937 -5.40513,4.100443 -8.76004,4.845978 C 177.35886,21.64979 174.93584,9.3484466 161.7026,9.3484466 c -3.16852,0 -6.15066,0.9319204 -8.94642,2.9821404 -5.77788,-3.9140555 -11.36941,-5.9642812 -16.58816,-5.9642812 -8.20087,0 -14.9107,4.1004502 -17.89284,10.8102602 -2.60937,-7.2689615 -8.0145,-11.1830278 -14.9107,-11.1830278 -5.591512,0 -10.623885,2.2366056 -15.097091,2.2366056 -4.10044,0 -5.591515,-1.3046918 -6.337049,-5.7778978 -0.745535,0.5591501 -1.304688,1.1183028 -1.863838,1.863838 -0.745535,0.9319177 -0.931919,2.2366069 -0.931919,3.1685246 0,4.1004394 3.16853,6.7098164 8.573655,6.7098164 5.218741,0 9.878345,-2.422989 14.165172,-2.422989 9.31917,0 15.09708,5.405138 15.09708,13.792401 0,8.946414 -5.96428,15.097088 -14.53793,15.097088 -7.828114,0 -11.928565,-4.100451 -11.928565,-11.555795 0,-5.405126 3.727681,-8.760039 8.946422,-8.760039 4.845973,0 8.014503,2.795761 8.014503,6.523433 0,2.982138 -2.05022,5.218746 -4.47321,5.218746 -2.79576,0 -4.473212,-1.677456 -4.473212,-4.286827 0,-0.745535 0.186384,-1.677456 0.559152,-2.609373 -0.745536,0.186384 -1.304688,0.745536 -2.050222,1.677454 -0.559152,0.745534 -0.931919,2.050223 -0.931919,3.168525 0,3.541288 2.236609,5.40513 5.964281,5.40513 4.84597,0 8.20089,-3.541298 8.20089,-8.760039 0,-5.964276 -4.65961,-10.623877 -11.369414,-10.623877 -8.014496,0 -13.978785,5.591522 -13.978785,13.792402 0,8.200879 6.150674,13.792401 16.029009,13.792401 8.38727,0 14.72432,-4.100451 17.52007,-11.183028 0.74554,1.863835 1.86384,3.541293 2.98214,4.473211 -4.28682,1.118302 -6.8962,4.286831 -6.8962,7.82812 0,4.10044 2.79576,6.8962 6.70982,6.8962 3.54129,0 5.7779,-1.491073 6.52343,-4.286827 -1.30468,0.931918 -2.98214,1.49107 -5.03236,1.49107 -2.42299,0 -4.6596,-2.236608 -4.6596,-4.473211 0,-2.982138 2.23661,-5.032362 5.21875,-5.032362 5.40513,0 8.94642,3.541297 8.94642,8.946422 0,4.65959 -3.72767,8.014503 -9.1328,8.014503 -6.15066,0 -15.0971,-9.505573 -26.652884,-9.505573 -12.674087,0 -20.315834,7.828132 -20.315834,20.874985 0,11.555786 6.89621,18.824767 16.588158,18.824767 9.1328,0 15.46985,-5.964295 15.46985,-14.165172 0,-7.268961 -4.84598,-12.674098 -11.369406,-12.674098 -5.218741,0 -8.946423,3.541297 -8.946423,8.387271 0,2.422987 1.491073,4.286827 4.100444,5.032363 -0.745535,-0.931918 -1.118303,-2.050224 -1.118303,-2.982141 0,-2.982138 2.795761,-5.40513 6.523433,-5.40513 4.659595,0 8.014505,3.541297 8.014505,8.573654 0,5.964272 -5.03237,10.62388 -11.742181,10.62388 -8.946413,0 -13.792401,-5.591527 -13.792401,-15.842626 0,-9.319181 6.150673,-15.842623 14.351553,-15.842623 5.777889,0 11.742189,3.72768 20.129449,7.82812 -2.42299,1.304685 -3.72768,3.541294 -3.72768,6.337049 0,3.727672 2.42299,6.150665 6.33705,6.150665 1.86384,0 4.10045,-1.304688 4.47321,-2.982141 -1.1183,0.55915 -2.05022,0.745536 -2.98214,0.745536 -2.79575,0 -4.84598,-1.863841 -4.84598,-4.286828 0,-2.60937 2.23661,-4.659595 5.21875,-4.659595 3.91406,0 6.52343,3.168529 6.52343,7.82812 0,7.268958 -5.96429,11.928566 -18.63837,19.01115 -18.265599,10.43748 -28.889494,17.333703 -28.889494,30.007793 0,7.45534 5.777905,13.7924 12.860482,13.7924 3.541289,0 6.709817,-2.23661 6.709817,-4.28683 -3.168522,-0.93192 -4.845979,-4.28684 -4.845979,-9.50557 0,-4.6596 3.541297,-8.57366 7.828124,-8.57366 5.03235,0 7.82811,3.35491 7.82811,9.87835 0,6.7098 -5.7779,11.92856 -12.674093,19.94306 -8.387263,9.50556 -15.097088,16.02902 -15.097088,25.3482 0,9.13279 7.641747,16.21539 18.638381,16.21539 11.18301,0 19.75668,-8.2009 19.75668,-18.452 0,-7.26896 -5.03236,-11.92856 -12.6741,-11.92856 -8.760027,0 -13.792397,3.91406 -13.792397,10.25111 0,5.03235 2.982146,8.0145 8.014507,8.0145 0.93191,0 1.67745,0 2.60937,-0.18638 -2.98214,-1.1183 -5.032363,-4.47321 -5.032363,-7.45535 0,-4.84598 3.168533,-8.38727 7.082583,-8.38727 5.59151,0 8.38727,3.3549 8.38727,9.87834 0,9.13279 -6.52344,16.029 -15.097086,16.029 -5.964276,0 -11.369412,-5.59152 -11.369412,-12.48771 0,-9.31918 5.591521,-13.60603 11.928564,-20.6886 8.760024,-9.69195 14.537934,-16.77456 14.537934,-25.16182 0,-7.82811 -5.40513,-13.41963 -12.86048,-13.41963 -6.70981,0 -12.860482,5.40513 -12.860482,11.18303 0,5.21873 2.609378,8.38727 7.641736,9.87834 -1.118302,1.1183 -2.609376,1.67745 -4.659596,1.67745 -4.473207,0 -8.387271,-4.47322 -8.387271,-9.69195 0,-9.50556 9.691972,-14.72434 24.975423,-23.857129 14.9107,-8.946423 23.1116,-15.842637 23.1116,-24.416281 0,-4.845974 -1.49107,-8.573657 -4.47322,-10.996644 5.40513,-2.050221 8.57366,-6.709824 8.57366,-12.860483 0,-2.982138 -1.1183,-5.591516 -3.16853,-7.828119 6.15067,-0.559152 9.87835,-4.845986 9.87835,-11.369412 0,-5.777893 -3.72768,-9.878342 -8.76004,-9.878342 -3.91406,0 -6.8962,2.79576 -6.8962,6.150666 0,0.745534 0.18638,1.677454 0.55915,2.422989 1.49107,-2.60937 3.54129,-4.100443 5.7779,-4.100443 3.72767,0 6.70981,2.795761 6.70981,6.337049 0,4.286823 -3.16852,7.082584 -8.38727,7.082584 -6.7098,0 -10.25111,-3.914067 -10.25111,-11.183028 0,-7.455344 6.33706,-12.301331 14.72432,-12.301331 8.01451,0 12.11496,5.218752 18.452,11.183029 8.76002,8.014495 15.0971,14.910704 27.5848,14.910704 l 1.86384,0 c 4.28683,3.16852 8.94644,4.659595 13.97878,4.659595 13.04686,0 20.31584,-7.268983 20.31584,-20.688602 l 0,-1.491071 c 8.0145,-8.946413 14.16518,-13.6060172 22.36606,-13.6060172 5.96428,0 10.62387,4.4732162 10.62387,10.0647252 0,6.896194 -4.47321,11.555796 -10.43749,11.555796 -3.91406,0 -6.70982,-2.609377 -6.70982,-5.964282 0,-2.795754 1.49107,-4.659596 4.10045,-5.40513 -0.37277,-1.491069 -1.67746,-2.609375 -4.10045,-3.541292 -2.79575,0.745534 -4.84598,4.286831 -4.84598,8.014503 0,6.150659 4.28684,10.064725 11.74218,10.064725 6.52344,0 12.48772,-6.709823 12.48772,-13.606017 0,-9.5055649 -6.52345,-16.029007 -16.02901,-16.029007 -6.15065,0 -13.41963,3.7276838 -21.43414,11.555796"
         id="path2994"
         inkscape:connector-curvature="0" />
    </g>
    <g
       style="font-size:144px;font-style:normal;font-variant:normal;font-weight:normal;font-stretch:normal;line-height:125%;letter-spacing:0px;word-spacing:0px;fill:#daa520;fill-opacity:1;stroke:none;font-family:WebOMints GD;-inkscape-font-specification:WebOMints GD"
       id="text4117"
       transform="matrix(1.294332,0,0,1.294332,-22.414097,-53.276417)">
      <path
         d="m 587.50989,52.703928 c -6.192,-6.047994 -11.80801,-8.928 -16.56,-8.928 -7.344,0 -12.384,5.040007 -12.384,12.384 0,5.327995 4.608,10.512 9.648,10.512 5.75999,0 9.072,-3.024005 9.072,-7.776 0,-2.879997 -1.58401,-5.616001 -3.744,-6.192 -1.872,0.719999 -2.88,1.584001 -3.168,2.736 2.01599,0.575999 3.168,2.016002 3.168,4.176 0,2.591997 -2.16001,4.608 -5.184,4.608 -4.608,0 -8.064,-3.600005 -8.064,-8.928 0,-4.319996 3.6,-7.776 8.208,-7.776 6.33599,0 11.088,3.600007 17.28,10.512 l 0,1.152 c 0,10.367989 5.61601,15.984 15.696,15.984 3.88799,0 7.488,-1.152003 10.8,-3.6 l 1.44,0 c 9.64799,0 14.544,-5.328006 21.312,-11.52 4.89599,-4.607996 8.064,-8.64 14.256,-8.64 6.47999,0 11.376,3.744006 11.376,9.504 0,5.615994 -2.73601,8.64 -7.92,8.64 -4.032,0 -6.48,-2.160003 -6.48,-5.472 0,-2.735997 2.304,-4.896 5.184,-4.896 1.72799,0 3.312,1.152002 4.464,3.168 0.288,-0.576 0.432,-1.296001 0.432,-1.872 0,-2.591998 -2.30401,-4.752 -5.328,-4.752 -3.888,0 -6.768,3.168004 -6.768,7.632 0,5.039995 2.88,8.352 7.632,8.784 -1.584,1.727998 -2.448,3.744002 -2.448,6.048 0,4.751995 2.448,8.352001 6.624,9.936 -2.304,1.871998 -3.456,4.752004 -3.456,8.496 0,6.623992 6.33601,11.952002 17.856,18.864002 11.80798,7.05599 19.296,11.08801 19.296,18.432 0,4.03199 -3.02401,7.488 -6.48,7.488 -1.584,0 -2.73601,-0.432 -3.6,-1.296 1.58399,-0.432 2.736,-1.152 3.456,-1.728 1.72799,-1.584 2.448,-3.312 2.448,-5.904 0,-4.464 -4.75201,-8.64 -9.936,-8.64 -5.76,0 -9.936,4.32 -9.936,10.368 0,6.47999 4.464,11.95201 11.232,19.44 4.89599,5.47199 9.216,8.78401 9.216,15.984 0,5.32799 -4.17601,9.648 -8.784,9.648 -6.624,0 -11.664,-5.32801 -11.664,-12.384 0,-5.04 2.16,-7.632 6.48,-7.632 3.02399,0 5.472,2.736 5.472,6.48 0,2.304 -1.58401,4.896 -3.888,5.76 0.72,0.144 1.296,0.144 2.016,0.144 3.88799,0 6.192,-2.30401 6.192,-6.192 0,-4.896 -3.88801,-7.92 -10.656,-7.92 -5.904,0 -9.792,3.6 -9.792,9.216 0,7.91999 6.624,14.256 15.264,14.256 8.49599,0 14.4,-5.47201 14.4,-12.528 0,-7.19999 -5.18401,-12.24001 -11.664,-19.584 -5.328,-6.192 -9.792,-10.22401 -9.792,-15.408 0,-5.04 2.16,-7.632 6.048,-7.632 3.31199,0 6.048,3.024 6.048,6.624 0,4.17599 -1.29601,6.624 -3.744,7.344 0,1.584 2.448,3.312 5.184,3.312 5.47199,0 9.936,-4.89601 9.936,-10.656 0,-9.79199 -8.20802,-15.12001 -22.32,-23.184 -9.79199,-5.472 -14.4,-9.07201 -14.4,-14.688002 0,-3.599997 2.016,-6.048 5.04,-6.048 2.30399,0 4.032,1.584002 4.032,3.6 0,1.871998 -1.58401,3.312 -3.744,3.312 -0.72,0 -1.44001,-0.144001 -2.304,-0.576 0.288,1.295999 2.016,2.304 3.456,2.304 3.02399,0 4.896,-1.872003 4.896,-4.752 0,-2.159998 -1.00801,-3.888001 -2.88,-4.896 6.33599,-3.167997 10.944,-6.048 15.552,-6.048 6.33599,0 11.088,5.040007 11.088,12.24 0,7.919992 -3.74401,12.240002 -10.656,12.240002 -5.184,0 -9.072,-3.60001 -9.072,-8.208002 0,-3.887996 2.592,-6.624 6.192,-6.624 2.87999,0 5.04,1.872002 5.04,4.176 0,0.719999 -0.288,1.584001 -0.864,2.304 0.86399,-0.288 1.44,-0.576 1.728,-0.864 1.00799,-0.863999 1.44,-1.872001 1.44,-3.024 0,-3.743996 -2.88001,-6.48 -6.912,-6.48 -5.04,0 -8.784,4.176005 -8.784,9.792 0,6.335992 4.896,10.944002 11.952,10.944002 7.48799,0 12.816,-5.61601 12.816,-14.544002 0,-10.07999 -5.90401,-16.128 -15.696,-16.128 -8.928,0 -15.84001,7.344 -20.592,7.344 -4.176,0 -7.056,-2.592004 -7.056,-6.192 0,-4.175996 2.736,-6.912 6.912,-6.912 2.30399,0 4.032,1.584002 4.032,3.888 0,1.727998 -1.72801,3.456 -3.6,3.456 -1.584,0 -2.88001,-0.432001 -3.888,-1.152 0.576,2.159998 2.304,3.312 5.04,3.312 3.02399,0 5.184,-2.160003 5.184,-5.328 0,-2.735997 -2.01601,-5.184001 -5.328,-6.048 0.86399,-0.719999 1.728,-2.016002 2.304,-3.456 2.15999,5.471994 7.056,8.64 13.536,8.64 7.63199,0 12.384,-4.320006 12.384,-10.656 0,-6.335994 -4.60801,-10.656 -10.8,-10.656 -5.184,0 -8.784,3.600004 -8.784,8.208 0,4.031996 2.592,6.768 6.336,6.768 2.87999,0 4.608,-1.440003 4.608,-4.176 0,-1.727998 -0.86401,-3.168001 -2.304,-3.744 0.288,0.719999 0.432,1.44 0.432,2.016 0,2.015998 -1.29601,3.312 -3.456,3.312 -1.872,0 -3.456,-1.728002 -3.456,-4.032 0,-2.879997 2.448,-5.04 6.192,-5.04 4.03199,0 6.912,2.592004 6.912,6.768 0,5.759994 -3.16801,8.928 -9.216,8.928 -6.624,0 -11.232,-4.752007 -11.232,-11.664 0,-6.479994 4.464,-10.656 11.664,-10.656 3.31199,0 6.912,1.872 10.944,1.872 4.17599,0 6.624,-2.016003 6.624,-5.184 0,-1.295999 -0.72001,-2.592001 -2.16,-3.888 -0.576,3.455996 -1.72801,4.464 -4.896,4.464 -3.456,0 -7.34401,-1.728 -11.664,-1.728 -5.328,0 -9.50401,3.024005 -11.52,8.64 -2.304,-5.183995 -7.48801,-8.352 -13.824,-8.352 -4.032,0 -8.35201,1.584003 -12.816,4.608 -2.16,-1.583999 -4.46401,-2.304 -6.912,-2.304 -10.22399,0 -12.09601,9.50401 -19.152,19.728 -2.592,-0.576 -4.75201,-1.728002 -6.768,-3.744 3.16799,-1.151999 5.04,-3.888004 5.04,-7.92 0,-3.743996 -2.44801,-6.768002 -6.768,-8.208 1.43999,-1.583999 3.456,-2.592 5.76,-2.592 3.59999,0 5.616,2.016003 5.616,5.616 0,1.583998 -0.43201,2.592 -1.728,3.168 0.432,0.144 0.864,0.288 1.296,0.288 2.01599,0 3.888,-2.160003 3.888,-4.752 0,-4.319996 -3.45601,-7.344 -9.072,-7.344 -3.744,0 -6.62401,1.584003 -8.784,5.04 l -0.864,0 c -4.032,0 -7.34401,1.872003 -9.36,5.04 m 1.44,1.44 c 1.72799,-2.879997 4.608,-4.464 8.064,-4.464 -0.432,1.583998 -0.576,3.312001 -0.576,4.896 0,2.015998 0.288,4.032002 0.864,6.192 -2.016,-0.863999 -4.75201,-3.024004 -8.352,-6.624 m 11.232,7.056 c -1.008,-2.015998 -1.44,-4.176002 -1.44,-6.48 0,-1.583999 0.288,-3.168002 0.864,-4.608 3.45599,1.007999 5.184,3.168003 5.184,6.336 0,2.303998 -1.72801,4.32 -4.608,4.752 m 6.192,9.216 c -2.016,1.295999 -4.17601,1.872 -6.048,1.872 -7.632,0 -12.816,-4.896008 -12.816,-12.528 l 0,-0.288 c 4.31999,3.887996 8.064,5.472 11.664,5.472 1.72799,2.447997 4.176,4.320001 7.2,5.472 m 9.36,-2.304 c 6.04799,-10.22399 8.208,-16.704 15.552,-16.704 0.72,0 1.584,0.144 2.592,0.432 -7.776,7.919992 -12.09601,14.688001 -18.144,16.272"
         id="path2997"
         inkscape:connector-curvature="0" />
    </g>
    <text
       xml:space="preserve"
       style="font-size:16px;font-style:italic;font-variant:normal;font-weight:bold;font-stretch:normal;line-height:125%;letter-spacing:0px;word-spacing:0px;fill:#000000;fill-opacity:1;stroke:none;font-family:rsfs10;-inkscape-font-specification:rsfs10 Bold Italic"
       x="249.57201"
       y="70.674095"
       id="text4121"
       sodipodi:linespacing="125%"><tspan
         sodipodi:role="line"
         id="tspan4123"
         x="249.57201"
         y="70.674095" /></text>
    <g
       style="font-size:13px;font-style:oblique;font-variant:normal;font-weight:normal;font-stretch:normal;line-height:125%;letter-spacing:0px;word-spacing:0px;fill:#000000;fill-opacity:1;stroke:none;font-family:Purisa;-inkscape-font-specification:Purisa Oblique"
       id="text4127"
       transform="matrix(1.294332,0,0,1.294332,-22.414097,-53.276417)">
      <path
         d="m 184.72315,105.11194 c -0.83203,4e-5 -2.03203,-0.97596 -3.6,-2.928 -1.56803,-1.98396 -2.35203,-3.359954 -2.352,-4.128 -3e-5,-0.319953 0.22397,-0.639952 0.672,-0.96 0.47997,-0.351952 1.02397,-0.527951 1.632,-0.528 0.51197,4.9e-5 1.71197,0.864048 3.6,2.592 1.88796,1.72804 2.83196,2.94404 2.832,3.648 -4e-5,0.35204 -0.41604,0.83204 -1.248,1.44 -0.83203,0.57604 -1.34403,0.86404 -1.536,0.864 m -6.048,20.736 c 0.28797,-0.12798 0.46397,-0.41598 0.528,-0.864 0.096,-0.44798 0.14397,-1.50398 0.144,-3.168 -3e-5,-3.07197 -0.11203,-5.21597 -0.336,-6.432 -0.89603,0.99203 -2.14403,2.59203 -3.744,4.8 -1.56802,2.20802 -2.81602,4.19202 -3.744,5.952 l -0.336,0.528 3.216,-0.192 c 2.81597,-0.19198 4.25597,-0.38398 4.32,-0.576 -3e-5,-0.032 -0.016,-0.048 -0.048,-0.048 m 6.864,13.776 c -3e-5,1.024 -0.11203,1.712 -0.336,2.064 -0.22403,0.32 -0.67203,0.48 -1.344,0.48 -0.41603,0 -0.97603,-0.176 -1.68,-0.528 -0.35203,-0.224 -0.62403,-0.448 -0.816,-0.672 -0.19203,-0.224 -0.33603,-0.576 -0.432,-1.056 -0.064,-0.51199 -0.11203,-0.97599 -0.144,-1.392 -3e-5,-0.44799 -0.016,-1.23199 -0.048,-2.352 -3e-5,-1.11999 -0.016,-2.17599 -0.048,-3.168 l -0.288,-3.12 -2.112,0.24 c -2.14403,0.25601 -4.35202,0.46401 -6.624,0.624 l -3.504,0.24 -1.872,2.064 c -1.79201,1.98401 -3.40801,3.95201 -4.848,5.904 -1.44001,1.92 -2.43201,3.328 -2.976,4.224 -0.54401,0.896 -1.12001,1.616 -1.728,2.16 -0.60801,0.544 -1.296,0.816 -2.064,0.816 -0.384,0 -0.784,-0.08 -1.2,-0.24 -0.384,-0.16 -0.576,-0.416 -0.576,-0.768 0,-0.544 0.464,-1.36 1.392,-2.448 0.96,-1.088 1.472,-1.776 1.536,-2.064 0.25599,-1.18399 0.76799,-1.95199 1.536,-2.304 0.15999,-0.064 0.43199,-0.43199 0.816,-1.104 0.41599,-0.70399 0.91199,-1.50399 1.488,-2.4 0.57599,-0.89599 1.10399,-1.55199 1.584,-1.968 0.54399,-0.41599 1.21599,-1.18399 2.016,-2.304 0.83199,-1.15198 2.52799,-3.71198 5.088,-7.68 1.59998,-2.49598 3.69598,-5.45597 6.288,-8.88 2.62397,-3.45597 4.27197,-5.43996 4.944,-5.952 0.86397,-0.25596 1.35997,-0.38396 1.488,-0.384 0.51197,4e-5 1.00797,0.16004 1.488,0.48 0.35197,0.54404 0.84797,2.22403 1.488,5.04 0.67197,2.78403 1.00797,4.83203 1.008,6.144 -3e-5,0.22403 -0.032,0.49603 -0.096,0.816 -0.032,0.32002 -0.048,0.75202 -0.048,1.296 -3e-5,0.51202 0.032,1.48802 0.096,2.928 0.096,1.44002 0.14397,2.60802 0.144,3.504 -3e-5,0.73602 -0.016,1.39202 -0.048,1.968 -0.032,0.54401 -0.048,1.00801 -0.048,1.392 -3e-5,0.99201 0.08,2.46401 0.24,4.416 0.15997,1.95201 0.23997,3.28001 0.24,3.984"
         style="font-size:48px;font-weight:bold;-inkscape-font-specification:Purisa Bold Oblique"
         id="path2992"
         inkscape:connector-curvature="0" />
      <path
         d="m 232.8139,105.92794 c 0.51199,-2.33596 0.99199,-4.12796 1.44,-5.376 0.44799,-1.247954 0.83199,-2.031953 1.152,-2.352 0.35199,-0.351953 0.76798,-0.527953 1.248,-0.528 0.31998,4.7e-5 0.59198,0.09605 0.816,0.288 0.25598,0.192047 0.38398,0.432047 0.384,0.72 -2e-5,0.768046 -0.52802,4.88004 -1.584,12.336 -1.05601,7.45603 -2.11201,14.72002 -3.168,21.792 -1.02401,7.04001 -1.55201,10.624 -1.584,10.752 -0.22401,1.12 -0.96001,1.68 -2.208,1.68 -0.60801,0 -1.04001,-0.16 -1.296,-0.48 -0.25601,-0.288 -0.38401,-0.896 -0.384,-1.824 -1e-5,-0.96 0.12799,-2.464 0.384,-4.512 0.28799,-2.04799 0.76799,-5.47199 1.44,-10.272 0.70399,-4.83198 1.35999,-9.63197 1.968,-14.4 0.35199,-2.46397 0.81599,-5.07196 1.392,-7.824"
         style="font-size:48px;font-weight:bold;-inkscape-font-specification:Purisa Bold Oblique"
         id="path2995"
         inkscape:connector-curvature="0" />
      <path
         d="m 244.7764,139.86394 c -1e-5,0.384 0.28799,0.704 0.864,0.96 0.60799,0.256 1.15199,0.384 1.632,0.384 0.70399,0 1.61599,-0.176 2.736,-0.528 1.15199,-0.352 2.12798,-0.68799 2.928,-1.008 l 1.152,-0.528 c 0.096,-0.41599 0.78398,-1.08799 2.064,-2.016 1.31198,-0.92799 1.96798,-1.48799 1.968,-1.68 -2e-5,-0.15999 -0.096,-0.35199 -0.288,-0.576 -0.16002,-0.22399 -0.62402,-0.46399 -1.392,-0.72 -0.73602,-0.25599 -1.72802,-0.38399 -2.976,-0.384 -2.72001,1e-5 -4.84801,0.68801 -6.384,2.064 -1.53601,1.37601 -2.30401,2.72001 -2.304,4.032 m 20.352,-15.744 c -3e-5,0.86402 -0.44803,3.55202 -1.344,8.064 -0.89603,4.51201 -1.45603,7.85601 -1.68,10.032 -0.22403,0.736 -0.64002,1.376 -1.248,1.92 -0.60802,0.512 -1.07202,0.768 -1.392,0.768 -0.99202,0 -1.48802,-0.976 -1.488,-2.928 -2e-5,-0.224 0.048,-1.008 0.144,-2.352 -1.28002,1.184 -3.04002,2.336 -5.28,3.456 -2.24001,1.088 -4.04801,1.632 -5.424,1.632 -0.89601,0 -1.95201,-0.144 -3.168,-0.432 -1.18401,-0.288 -2.01601,-0.64 -2.496,-1.056 -0.48,-0.448 -0.72,-1.28 -0.72,-2.496 0,-2.30399 0.592,-4.09599 1.776,-5.376 1.18399,-1.27999 2.99199,-2.46399 5.424,-3.552 2.55999,-1.18399 4.87998,-1.77598 6.96,-1.776 0.89598,2e-5 1.61598,0.11201 2.16,0.336 0.54398,0.22401 0.94398,0.49601 1.2,0.816 0.28798,0.28801 0.44798,0.43201 0.48,0.432 0.47998,0.096 0.87998,0.30401 1.2,0.624 0.60798,-2.81598 0.91198,-5.08798 0.912,-6.816 -2e-5,-2.27198 -0.62402,-3.40798 -1.872,-3.408 -1.53602,2e-5 -3.26402,0.30402 -5.184,0.912 -1.88802,0.60802 -3.61601,1.23202 -5.184,1.872 -1.53601,0.60802 -2.62401,0.91202 -3.264,0.912 -0.67201,2e-5 -1.00801,-0.28798 -1.008,-0.864 -1e-5,-0.032 -1e-5,-0.064 0,-0.096 0.032,-0.064 0.048,-0.11198 0.048,-0.144 0.12799,-0.54398 0.33599,-1.00798 0.624,-1.392 0.28799,-0.41598 0.76799,-0.78398 1.44,-1.104 0.70399,-0.35198 1.29599,-0.62398 1.776,-0.816 0.51199,-0.19198 1.42399,-0.49598 2.736,-0.912 1.31198,-0.41597 2.35198,-0.76797 3.12,-1.056 1.91998,-0.67197 3.67998,-1.00797 5.28,-1.008 2.59197,3e-5 4.27197,1.21603 5.04,3.648 0.28797,0.80002 0.43197,1.52002 0.432,2.16"
         style="font-size:48px;font-weight:bold;-inkscape-font-specification:Purisa Bold Oblique"
         id="path2998"
         inkscape:connector-curvature="0" />
      <path
         d="m 322.6759,117.54394 c -3e-5,-1.21597 -0.064,-1.95197 -0.192,-2.208 -0.096,-0.25597 -0.40003,-0.38397 -0.912,-0.384 -0.25602,3e-5 -1.44002,0.16003 -3.552,0.48 -2.08002,0.32003 -3.71202,0.48003 -4.896,0.48 -0.76802,3e-5 -1.85601,0.12803 -3.264,0.384 -1.40801,0.22403 -2.38401,0.33603 -2.928,0.336 -0.83201,3e-5 -1.50401,-0.15997 -2.016,-0.48 -0.51201,-0.35197 -0.76801,-0.79997 -0.768,-1.344 -10e-6,-0.89597 0.59199,-1.50397 1.776,-1.824 1.18399,-0.35197 3.93599,-0.83197 8.256,-1.44 6.52798,-0.89597 12.39997,-1.79196 17.616,-2.688 4.09596,-0.67196 6.55996,-1.00796 7.392,-1.008 1.31196,4e-5 2.43196,0.24004 3.36,0.72 0.95995,0.44804 1.43995,0.99204 1.44,1.632 -5e-5,0.64003 -0.46405,1.24803 -1.392,1.824 -0.92804,0.54403 -2.36804,0.81603 -4.32,0.816 -2.08004,3e-5 -4.48004,0.27203 -7.2,0.816 l -3.408,0.72 -0.096,3.312 c -0.032,1.40803 -0.33603,4.35202 -0.912,8.832 -0.54403,4.48001 -1.08803,8.60801 -1.632,12.384 l -0.768,5.664 c -0.35203,1.536 -1.16803,2.304 -2.448,2.304 -0.64002,0 -1.10402,-0.256 -1.392,-0.768 -0.28802,-0.512 -0.43202,-1.408 -0.432,-2.688 -2e-5,-1.664 0.44798,-5.69599 1.344,-12.096 0.89597,-6.39998 1.34397,-10.99198 1.344,-13.776"
         style="font-size:48px;font-weight:bold;-inkscape-font-specification:Purisa Bold Oblique"
         id="path3000"
         inkscape:connector-curvature="0" />
      <path
         d="m 373.97665,139.62394 c -3e-5,1.024 -0.11203,1.712 -0.336,2.064 -0.22403,0.32 -0.67203,0.48 -1.344,0.48 -0.41603,0 -0.97603,-0.176 -1.68,-0.528 -0.44803,-0.256 -0.76803,-0.592 -0.96,-1.008 -0.16003,-0.416 -0.25603,-0.84799 -0.288,-1.296 -3e-5,-0.47999 -0.016,-1.34399 -0.048,-2.592 -3e-5,-1.24799 -0.064,-2.49599 -0.192,-3.744 l -0.288,-3.12 -2.112,0.24 c -2.14403,0.25601 -4.35202,0.46401 -6.624,0.624 l -3.504,0.24 -1.872,2.064 c -3.07201,3.45601 -5.76001,6.96001 -8.064,10.512 -1.05601,1.728 -2.24001,2.592 -3.552,2.592 -0.384,0 -0.784,-0.08 -1.2,-0.24 -0.384,-0.16 -0.576,-0.416 -0.576,-0.768 0,-0.544 0.464,-1.36 1.392,-2.448 0.96,-1.088 1.472,-1.776 1.536,-2.064 0.25599,-1.18399 0.76799,-1.95199 1.536,-2.304 0.15999,-0.064 0.43199,-0.43199 0.816,-1.104 0.41599,-0.70399 0.91199,-1.50399 1.488,-2.4 0.57599,-0.89599 1.10399,-1.55199 1.584,-1.968 0.38399,-0.35199 0.75199,-0.73599 1.104,-1.152 0.38399,-0.41599 1.05599,-1.32799 2.016,-2.736 0.95999,-1.43998 2.28798,-3.47198 3.984,-6.096 1.59998,-2.49598 3.69598,-5.45597 6.288,-8.88 2.62397,-3.45597 4.27197,-5.43996 4.944,-5.952 0.86397,-0.25596 1.35997,-0.38396 1.488,-0.384 0.51197,4e-5 1.00797,0.16004 1.488,0.48 0.35197,0.54404 0.84797,2.22403 1.488,5.04 0.67197,2.78403 1.00797,4.83203 1.008,6.144 -3e-5,0.22403 -0.032,0.49603 -0.096,0.816 -0.032,0.32002 -0.048,0.75202 -0.048,1.296 -3e-5,0.51202 0.032,1.48802 0.096,2.928 0.096,1.44002 0.14397,2.60802 0.144,3.504 -3e-5,0.73602 -0.016,1.39202 -0.048,1.968 -0.032,0.54401 -0.048,1.00801 -0.048,1.392 -3e-5,0.99201 0.08,2.46401 0.24,4.416 0.15997,1.95201 0.23997,3.28001 0.24,3.984 m -7.344,-13.536 c 0.57597,-0.12798 0.91197,-0.43198 1.008,-0.912 0.096,-0.47998 0.14397,-1.71198 0.144,-3.696 -3e-5,-2.97597 -0.11203,-5.02397 -0.336,-6.144 -1.12003,1.21603 -2.33603,2.76803 -3.648,4.656 -1.28002,1.88802 -2.28802,3.47202 -3.024,4.752 l -1.152,1.92 3.216,-0.192 c 1.98397,-0.12798 3.24797,-0.25598 3.792,-0.384"
         style="font-size:48px;font-weight:bold;-inkscape-font-specification:Purisa Bold Oblique"
         id="path3002"
         inkscape:connector-curvature="0" />
      <path
         d="m 414.50815,110.29594 c -4e-5,1.28003 -0.54404,1.92003 -1.632,1.92 -0.57603,3e-5 -1.07203,-0.15997 -1.488,-0.48 -0.41603,-0.35197 -0.68803,-0.70397 -0.816,-1.056 l -0.192,-0.48 c -0.096,-0.15996 -0.32003,-0.23996 -0.672,-0.24 -1.63203,4e-5 -3.77603,0.51203 -6.432,1.536 -2.65602,1.02403 -4.76802,2.17603 -6.336,3.456 -1.31202,1.05603 -2.49602,2.72003 -3.552,4.992 -1.02401,2.27202 -2.01601,5.66402 -2.976,10.176 -0.32001,1.37601 -0.48001,2.46401 -0.48,3.264 -10e-6,1.72801 0.52799,3.20001 1.584,4.416 1.05599,1.18401 2.33598,1.77601 3.84,1.776 0.73598,1e-5 1.93598,-0.33599 3.6,-1.008 1.69598,-0.67199 2.91198,-1.31199 3.648,-1.92 l 3.168,-2.448 c 0.99197,-0.73599 2.04797,-1.71199 3.168,-2.928 1.15197,-1.24798 2.09597,-2.22398 2.832,-2.928 0.73597,-0.70398 1.34397,-1.05598 1.824,-1.056 0.032,2e-5 0.08,0.016 0.144,0.048 0.096,0.032 0.15996,0.064 0.192,0.096 0.032,2e-5 0.08,0.032 0.144,0.096 0.096,0.032 0.15996,0.08 0.192,0.144 0.032,0.064 0.064,0.16002 0.096,0.288 0.032,0.096 0.048,0.22402 0.048,0.384 -4e-5,0.35202 -0.032,0.65602 -0.096,0.912 -0.16004,0.67202 -0.88003,1.80801 -2.16,3.408 -1.24803,1.56801 -2.78403,3.23201 -4.608,4.992 -1.82403,1.72801 -3.96803,3.248 -6.432,4.56 -2.46402,1.312 -4.75202,1.968 -6.864,1.968 -1.31201,0 -2.51201,-0.24 -3.6,-0.72 -1.08801,-0.512 -1.95201,-1.12 -2.592,-1.824 -0.64001,-0.704 -1.18401,-1.456 -1.632,-2.256 -0.44801,-0.79999 -0.75201,-1.47199 -0.912,-2.016 -0.16001,-0.57599 -0.24001,-1.00799 -0.24,-1.296 -10e-6,-1.56799 0.57599,-4.73599 1.728,-9.504 1.15199,-4.76798 2.14399,-7.96797 2.976,-9.6 0.99199,-1.95197 2.59199,-3.80797 4.8,-5.568 2.23998,-1.75996 4.60798,-3.13596 7.104,-4.128 2.52797,-0.99196 4.79997,-1.48796 6.816,-1.488 1.63197,4e-5 3.00797,0.44804 4.128,1.344 1.11996,0.89604 1.67996,1.95204 1.68,3.168"
         style="font-size:48px;font-weight:bold;-inkscape-font-specification:Purisa Bold Oblique"
         id="path3004"
         inkscape:connector-curvature="0" />
      <path
         d="m 424.9864,145.19194 c -1.05601,0 -1.92001,-0.08 -2.592,-0.24 -0.64001,-0.128 -1.08801,-0.352 -1.344,-0.672 -0.224,-0.32 -0.368,-0.592 -0.432,-0.816 -0.064,-0.224 -0.096,-0.544 -0.096,-0.96 0,-1.024 0.144,-2.62399 0.432,-4.8 0.31999,-2.20799 0.73599,-5.00799 1.248,-8.4 0.51199,-3.39198 0.91199,-6.39998 1.2,-9.024 0.032,-0.096 0.064,-0.38397 0.096,-0.864 0.032,-0.47997 0.08,-1.02397 0.144,-1.632 0.096,-0.63997 0.20799,-1.24797 0.336,-1.824 0.41599,-1.88797 0.95999,-3.24797 1.632,-4.08 0.70399,-0.86397 1.37599,-1.29597 2.016,-1.296 0.25599,3e-5 0.84799,-0.20797 1.776,-0.624 0.95999,-0.41596 2.01598,-0.86396 3.168,-1.344 1.18398,-0.51196 2.76798,-0.97596 4.752,-1.392 2.01598,-0.41596 4.09597,-0.62396 6.24,-0.624 3.07197,4e-5 4.60797,0.57604 4.608,1.728 -3e-5,0.99204 -1.87203,1.74404 -5.616,2.256 -2.88002,0.41603 -5.55202,0.99203 -8.016,1.728 -2.46402,0.73603 -4.12801,1.42403 -4.992,2.064 -0.48001,0.35203 -0.80001,0.86403 -0.96,1.536 l -0.24,2.4 c -0.19201,1.60003 -0.36801,3.24802 -0.528,4.944 -0.16001,1.69602 -0.24001,2.65602 -0.24,2.88 0.89599,-0.35198 3.00799,-0.86398 6.336,-1.536 3.35998,-0.67198 5.64798,-1.00798 6.864,-1.008 0.57597,2e-5 0.99197,0.14402 1.248,0.432 0.28797,0.25602 0.43197,0.56002 0.432,0.912 -3e-5,0.54402 -0.30403,1.07202 -0.912,1.584 -0.89602,0.70402 -3.42402,1.50402 -7.584,2.4 -4.12801,0.86402 -6.41601,1.40801 -6.864,1.632 -0.19201,0.096 -0.32001,0.30401 -0.384,0.624 -0.64001,3.00801 -1.02401,4.92801 -1.152,5.76 l -0.576,3.408 2.016,0 c 1.50399,0 3.48799,-0.28799 5.952,-0.864 2.46398,-0.57599 4.54398,-1.24799 6.24,-2.016 1.21598,-0.60799 2.03197,-0.91199 2.448,-0.912 0.47997,1e-5 0.87997,0.20801 1.2,0.624 0.31997,0.38401 0.47997,0.81601 0.48,1.296 -3e-5,1.02401 -1.05603,2.08 -3.168,3.168 -2.08002,1.056 -4.56002,1.92 -7.44,2.592 -2.88001,0.64 -5.45601,0.96 -7.728,0.96"
         style="font-size:48px;font-weight:bold;-inkscape-font-specification:Purisa Bold Oblique"
         id="path3006"
         inkscape:connector-curvature="0" />
      <path
         d="m 498.8749,144.23194 c -2e-5,-0.544 0.30398,-2.72 0.912,-6.528 0.63998,-3.80799 0.95998,-6.62399 0.96,-8.448 -2e-5,-2.04798 -0.46402,-3.87198 -1.392,-5.472 -0.54402,-0.95998 -0.91202,-1.43998 -1.104,-1.44 -0.51202,0.12802 -2.36802,2.52802 -5.568,7.2 -0.83201,1.21601 -1.39201,2.44801 -1.68,3.696 -0.16001,0.76801 -0.48001,1.56801 -0.96,2.4 -0.48001,0.83201 -1.12001,2.88001 -1.92,6.144 -0.064,0.288 -0.17601,0.752 -0.336,1.392 -0.12801,0.64 -0.24001,1.104 -0.336,1.392 -0.064,0.288 -0.17601,0.672 -0.336,1.152 -0.12801,0.48 -0.25601,0.832 -0.384,1.056 -0.12801,0.224 -0.28801,0.464 -0.48,0.72 -0.16001,0.256 -0.36801,0.432 -0.624,0.528 -0.22401,0.128 -0.48001,0.192 -0.768,0.192 -0.76801,0 -1.15201,-0.608 -1.152,-1.824 -1e-5,-1.408 0.55999,-4.688 1.68,-9.84 0.31999,-1.50399 0.62399,-3.05599 0.912,-4.656 0.28799,-1.63199 0.51199,-3.02398 0.672,-4.176 0.15999,-1.15198 0.31999,-2.28798 0.48,-3.408 0.15999,-1.15198 0.30399,-2.09598 0.432,-2.832 0.15999,-0.76798 0.33599,-1.43997 0.528,-2.016 0.19199,-0.60797 0.41599,-1.03997 0.672,-1.296 0.28799,-0.28797 0.60799,-0.43197 0.96,-0.432 0.70399,3e-5 1.05599,1.05603 1.056,3.168 -1e-5,0.54402 -0.032,1.34402 -0.096,2.4 -0.032,1.05602 -0.048,1.77602 -0.048,2.16 0.28799,-0.47998 0.51199,-0.83198 0.672,-1.056 0.15999,-0.22398 0.28799,-0.36798 0.384,-0.432 0.12799,-0.096 0.36798,-0.33598 0.72,-0.72 0.35198,-0.41598 0.78398,-0.97598 1.296,-1.68 1.11998,-1.47198 1.95198,-2.38397 2.496,-2.736 0.57598,-0.38397 1.45598,-0.57597 2.64,-0.576 1.27998,3e-5 2.49598,0.76803 3.648,2.304 0.54397,0.70402 0.89597,1.36002 1.056,1.968 0.19197,0.60802 0.28797,1.45602 0.288,2.544 -3e-5,0.32002 -0.032,1.08802 -0.096,2.304 l -0.048,1.776 c 1.50397,-2.84798 3.37597,-5.37598 5.616,-7.584 2.23997,-2.20797 4.23996,-3.31197 6,-3.312 1.08796,3e-5 1.90396,0.49603 2.448,1.488 0.57596,0.96002 0.87996,2.16002 0.912,3.6 -4e-5,1.56802 -0.60804,5.18402 -1.824,10.848 -0.73604,3.45601 -1.32804,5.952 -1.776,7.488 -0.44804,1.536 -0.84804,2.528 -1.2,2.976 -0.32004,0.416 -0.78404,0.624 -1.392,0.624 -0.60803,0 -0.91203,-0.336 -0.912,-1.008 -3e-5,-0.48 0.55996,-3.6 1.68,-9.36 1.15196,-5.75998 1.72796,-9.63198 1.728,-11.616 -4e-5,-1.34398 -0.22404,-2.01598 -0.672,-2.016 -0.28804,2e-5 -0.78404,0.33602 -1.488,1.008 -0.70404,0.67202 -1.53603,1.68002 -2.496,3.024 -0.96003,1.31202 -1.95203,2.81602 -2.976,4.512 -0.99203,1.69601 -1.98403,3.72801 -2.976,6.096 -0.99203,2.33601 -1.80803,4.704 -2.448,7.104 -0.48002,1.76 -1.21602,2.64 -2.208,2.64 -0.76802,0 -1.15202,-0.48 -1.152,-1.44"
         style="font-size:48px;font-weight:bold;-inkscape-font-specification:Purisa Bold Oblique"
         id="path3008"
         inkscape:connector-curvature="0" />
      <path
         d="m 549.2689,134.39194 c 1.24797,-0.86399 2.11197,-1.29599 2.592,-1.296 0.47997,10e-6 0.71997,0.24001 0.72,0.72 -3e-5,0.64001 -0.60803,1.68001 -1.824,3.12 -1.18403,1.40801 -2.44803,2.60801 -3.792,3.6 -4.22402,3.072 -8.24002,4.608 -12.048,4.608 -2.65601,0 -4.94401,-0.896 -6.864,-2.688 -1.92,-1.824 -2.88,-4.35199 -2.88,-7.584 0,-2.68799 0.56,-5.05598 1.68,-7.104 1.11999,-1.98398 3.07199,-4.04798 5.856,-6.192 2.78399,-2.17597 5.24798,-3.26397 7.392,-3.264 0.54398,3e-5 1.37598,0.048 2.496,0.144 1.69598,0.12803 2.87998,0.30403 3.552,0.528 0.67197,0.19203 1.40797,0.59203 2.208,1.2 0.76797,0.60802 1.42397,1.42402 1.968,2.448 0.57597,1.02402 0.86397,2.00002 0.864,2.928 -3e-5,0.67202 -0.16003,1.28002 -0.48,1.824 -0.32003,0.51202 -0.68803,0.92802 -1.104,1.248 -0.41603,0.32002 -1.00803,0.62402 -1.776,0.912 -0.76803,0.25602 -1.44002,0.44802 -2.016,0.576 -0.54402,0.12801 -1.26402,0.27201 -2.16,0.432 -3.23202,0.60801 -6.51202,1.00801 -9.84,1.2 l -4.224,0.192 -0.24,1.248 c -0.12801,0.70401 -0.19201,1.18401 -0.192,1.44 -10e-6,1.50401 0.75199,3.00801 2.256,4.512 1.37599,1.408 2.95999,2.112 4.752,2.112 1.40798,0 2.99198,-0.416 4.752,-1.248 1.75998,-0.86399 3.27998,-1.80799 4.56,-2.832 1.31197,-1.02399 2.57597,-1.95199 3.792,-2.784 m -2.16,-8.496 c 0.12797,-0.15998 0.19197,-0.30398 0.192,-0.432 -3e-5,-0.12798 -0.08,-0.28798 -0.24,-0.48 -0.16003,-0.19198 -0.44803,-0.47998 -0.864,-0.864 l -0.576,-0.576 c -0.83202,-0.76798 -1.45602,-1.24798 -1.872,-1.44 -0.41602,-0.19198 -1.02402,-0.28798 -1.824,-0.288 -1.60002,2e-5 -2.80002,0.12802 -3.6,0.384 -0.80002,0.22402 -1.69602,0.73602 -2.688,1.536 -3.04001,2.46402 -4.62401,4.03202 -4.752,4.704 l -0.048,-0.048 c 0.12799,0.032 0.41599,0.048 0.864,0.048 3.10399,2e-5 7.51998,-0.54398 13.248,-1.632 0.57598,-0.096 1.05598,-0.23998 1.44,-0.432 0.38397,-0.19198 0.62397,-0.35198 0.72,-0.48"
         style="font-size:48px;font-weight:bold;-inkscape-font-specification:Purisa Bold Oblique"
         id="path3010"
         inkscape:connector-curvature="0" />
      <path
         d="m 580.70515,117.49594 c 1.15197,3e-5 2.04797,0.64003 2.688,1.92 0.63997,1.24802 0.95997,2.52802 0.96,3.84 -3e-5,2.56002 -0.92803,8.01601 -2.784,16.368 -0.44803,2.112 -0.89603,3.552 -1.344,4.32 -0.44803,0.736 -1.12003,1.104 -2.016,1.104 -0.76802,0 -1.15202,-0.336 -1.152,-1.008 -2e-5,-0.128 0.55998,-2.736 1.68,-7.824 1.15197,-5.11999 1.72797,-8.99198 1.728,-11.616 -3e-5,-0.57598 -0.096,-1.05598 -0.288,-1.44 -0.19203,-0.41598 -0.36803,-0.67198 -0.528,-0.768 -0.12803,-0.12798 -0.22403,-0.19198 -0.288,-0.192 -0.51203,2e-5 -1.79202,1.07202 -3.84,3.216 -2.04802,2.14402 -3.84002,4.33602 -5.376,6.576 -1.63201,2.36801 -2.75201,4.09601 -3.36,5.184 -0.57601,1.08801 -1.16801,2.56001 -1.776,4.416 -0.73601,2.176 -1.24801,3.584 -1.536,4.224 -0.28801,0.672 -0.62401,1.008 -1.008,1.008 -0.12801,0 -0.27201,-0.048 -0.432,-0.144 -0.16001,-0.064 -0.35201,-0.192 -0.576,-0.384 -0.19201,-0.192 -0.36801,-0.48 -0.528,-0.864 -0.12801,-0.384 -0.19201,-0.832 -0.192,-1.344 -1e-5,-0.672 0.096,-1.68 0.288,-3.024 0.19199,-1.37599 0.47999,-3.40799 0.864,-6.096 0.38399,-2.68799 0.71999,-5.48798 1.008,-8.4 0.41599,-4.12798 0.76799,-6.63997 1.056,-7.536 0.44799,-1.31197 1.10399,-1.96797 1.968,-1.968 0.41599,3e-5 0.70399,0.14403 0.864,0.432 0.19199,0.25603 0.28799,0.76803 0.288,1.536 -1e-5,0.76803 -0.24001,3.55202 -0.72,8.352 l -0.528,5.472 0.864,-1.584 c 1.11999,-2.04798 2.03198,-3.55198 2.736,-4.512 0.70398,-0.95998 1.91998,-2.33598 3.648,-4.128 3.32798,-3.42397 5.87197,-5.13597 7.632,-5.136"
         style="font-size:48px;font-weight:bold;-inkscape-font-specification:Purisa Bold Oblique"
         id="path3012"
         inkscape:connector-curvature="0" />
      <path
         d="m 613.72315,143.27194 c -3e-5,0.768 -0.17603,1.376 -0.528,1.824 -0.32003,0.48 -0.64003,0.768 -0.96,0.864 -0.28803,0.096 -0.59203,0.144 -0.912,0.144 -0.83202,0 -1.39202,-0.624 -1.68,-1.872 -0.28802,-1.28 -0.46402,-2.768 -0.528,-4.464 -0.064,-1.69599 -0.19202,-2.76799 -0.384,-3.216 -0.12802,0.12801 -0.41602,0.43201 -0.864,0.912 -0.41602,0.44801 -0.75202,0.81601 -1.008,1.104 -1.92002,2.176 -4.03202,4.064 -6.336,5.664 -2.27201,1.568 -4.16001,2.352 -5.664,2.352 -1.76001,0 -2.97601,-0.384 -3.648,-1.152 -0.64,-0.768 -0.96,-2.192 -0.96,-4.272 0,-3.83999 0.592,-8.49599 1.776,-13.968 0.63999,-2.97598 1.24799,-5.11998 1.824,-6.432 0.57599,-1.31197 1.23199,-1.96797 1.968,-1.968 0.44799,3e-5 0.84799,0.17603 1.2,0.528 0.35199,0.32003 0.52799,0.81602 0.528,1.488 -10e-6,0.38402 -0.048,0.75202 -0.144,1.104 -0.096,0.35202 -0.25601,0.86402 -0.48,1.536 -0.19201,0.64002 -0.36801,1.37602 -0.528,2.208 -1.28001,7.04001 -1.92001,11.95201 -1.92,14.736 -10e-6,0.896 0.048,1.52 0.144,1.872 0.12799,0.32 0.36799,0.48 0.72,0.48 0.63999,0 1.80799,-0.576 3.504,-1.728 2.20798,-1.47199 4.55998,-3.80799 7.056,-7.008 2.49598,-3.23199 4.44798,-6.47998 5.856,-9.744 1.05597,-2.46398 1.88797,-4.07998 2.496,-4.848 0.60797,-0.76797 1.27997,-1.15197 2.016,-1.152 0.99197,3e-5 1.48797,0.46403 1.488,1.392 -3e-5,0.48002 -0.59203,2.32002 -1.776,5.52 -1.15203,3.20002 -1.88803,5.58401 -2.208,7.152 -0.28803,1.24801 -0.43203,2.68801 -0.432,4.32 -3e-5,0.96001 0.064,2.19201 0.192,3.696 0.12797,1.504 0.19197,2.48 0.192,2.928"
         style="font-size:48px;font-weight:bold;-inkscape-font-specification:Purisa Bold Oblique"
         id="path3014"
         inkscape:connector-curvature="0" />
    </g>
    <path
       style="fill:#daa520;stroke:#daa520;stroke-width:1.29433191px;stroke-linecap:butt;stroke-linejoin:miter;stroke-opacity:1"
       d="m 263.63787,21.577699 425.37857,0"
       id="path4131"
       inkscape:connector-curvature="0" />
  </g>
</svg>
